<svg xmlns="http://www.w3.org/2000/svg" viewBox="0 0 512 512">
  <defs>
    <linearGradient id="g" x1="0" y1="0" x2="1" y2="1">
      <stop offset="0%" stop-color="#E5E7EB"/>
      <stop offset="100%" stop-color="#F3F4F6"/>
    </linearGradient>
  </defs>
  <rect width="512" height="512" fill="url(#g)"/>
  <g fill="#9CA3AF" opacity="0.8">
    <path d="M128 368h256c8.8 0 16-7.2 16-16V160c0-8.8-7.2-16-16-16H128c-8.8 0-16 7.2-16 16v192c0 8.8 7.2 16 16 16zm0 32c-26.5 0-48-21.5-48-48V160c0-26.5 21.5-48 48-48h256c26.5 0 48 21.5 48 48v192c0 26.5-21.5 48-48 48H128z"/>
    <circle cx="200" cy="208" r="28"/>
    <path d="M128 336l72-80 56 56 64-72 64 96H128z"/>
  </g>
</svg>
